/* XPM */
static char *cf35c465b5874748d903cefa7c1659a3XvrR1drIi7SWLLLH[] = {
/* columns rows colors chars-per-pixel */
"16 16 4 1 ",
"  c #4E3723",
". c #7E512F",
"X c #6F6060",
"o c #96744B",
/* pixels */
"oo.  .oooo. .ooo",
"ooo. .oooo. .ooo",
"ooo. .oooo.  .oo",
"ooo.  .oooo. .oo",
"oXo.  .oooo. .oo",
"oo.   .oooo. .oo",
"oo.  .oXoo.  .oo",
"oo.  .oooo.  .oo",
"oo.  .oooo. .ooo",
"oo.  .oooo. .ooo",
"Xoo. .ooo.  .ooo",
"ooo. .ooo.  .ooo",
"ooo. .ooo.  .ooX",
"ooo. .ooo.  .ooo",
"oo.  .ooXo. .ooo",
"oo.  .oooo. .ooo"
};
