/* XPM */
static char *f8ea48ff494644f6912454dad7c9862buSPeWjkS7vDdsOOU[] = {
/* columns rows colors chars-per-pixel */
"16 16 3 1 ",
"  c #3E2731",
". c #733E39",
"X c #804037",
/* pixels */
"XXX XXXXXXX XXXX",
"..X ......X ....",
"..X ......X ....",
"                ",
" XXXXXXX XXXXXXX",
" ......X ......X",
" ......X ......X",
"                ",
"XXX XXXXXXX XXXX",
"..X ......X ....",
"..X ......X ....",
"                ",
" XXXXXXX XXXXXXX",
" ......X ......X",
" ......X ......X",
"                "
};
